<?xml version="1.0" encoding="utf-8"?>
<!-- Generator: Adobe Illustrator 16.0.0, SVG Export Plug-In . SVG Version: 6.00 Build 0)  -->
<!DOCTYPE svg PUBLIC "-//W3C//DTD SVG 1.1//EN" "http://www.w3.org/Graphics/SVG/1.1/DTD/svg11.dtd">
<svg version="1.1" id="Layer_1" xmlns="http://www.w3.org/2000/svg" xmlns:xlink="http://www.w3.org/1999/xlink" x="0px" y="0px"
	 width="595.28px" height="841.89px" viewBox="0 0 595.28 841.89" enable-background="new 0 0 595.28 841.89" xml:space="preserve">
<rect x="224.325" y="494.675" fill="#ED1F24" stroke="#FFFFFF" stroke-width="2" stroke-miterlimit="10" width="48.783" height="48.783"/>
<rect x="224.325" y="543.458" fill="#ED1F24" stroke="#FFFFFF" stroke-width="2" stroke-miterlimit="10" width="48.783" height="48.784"/>
<rect x="224.325" y="445.892" fill="#ED1F24" stroke="#FFFFFF" stroke-width="2" stroke-miterlimit="10" width="48.783" height="48.783"/>
<rect x="175.542" y="445.892" fill="#ED1F24" stroke="#FFFFFF" stroke-width="2" stroke-miterlimit="10" width="48.784" height="48.783"/>
<rect x="175.542" y="494.675" fill="#ED1F24" stroke="#FFFFFF" stroke-width="2" stroke-miterlimit="10" width="48.784" height="48.783"/>
<rect x="126.758" y="445.892" fill="#ED1F24" stroke="#FFFFFF" stroke-width="2" stroke-miterlimit="10" width="48.783" height="48.783"/>
<rect x="321.892" y="494.675" fill="#ED1F24" stroke="#FFFFFF" stroke-width="2" stroke-miterlimit="10" width="48.783" height="48.783"/>
<rect x="321.892" y="543.458" fill="#ED1F24" stroke="#FFFFFF" stroke-width="2" stroke-miterlimit="10" width="48.783" height="48.784"/>
<rect x="321.892" y="445.892" fill="#ED1F24" stroke="#FFFFFF" stroke-width="2" stroke-miterlimit="10" width="48.783" height="48.783"/>
<rect x="370.675" y="445.892" fill="#ED1F24" stroke="#FFFFFF" stroke-width="2" stroke-miterlimit="10" width="48.783" height="48.783"/>
<rect x="370.675" y="494.675" fill="#ED1F24" stroke="#FFFFFF" stroke-width="2" stroke-miterlimit="10" width="48.783" height="48.783"/>
<rect x="419.458" y="445.892" fill="#ED1F24" stroke="#FFFFFF" stroke-width="2" stroke-miterlimit="10" width="48.784" height="48.783"/>
<rect x="321.892" y="299.542" fill="#ED1F24" stroke="#FFFFFF" stroke-width="2" stroke-miterlimit="10" width="48.783" height="48.784"/>
<rect x="321.892" y="250.758" fill="#ED1F24" stroke="#FFFFFF" stroke-width="2" stroke-miterlimit="10" width="48.783" height="48.783"/>
<rect x="321.892" y="348.325" fill="#ED1F24" stroke="#FFFFFF" stroke-width="2" stroke-miterlimit="10" width="48.783" height="48.783"/>
<rect x="370.675" y="348.325" fill="#ED1F24" stroke="#FFFFFF" stroke-width="2" stroke-miterlimit="10" width="48.783" height="48.783"/>
<rect x="370.675" y="299.542" fill="#ED1F24" stroke="#FFFFFF" stroke-width="2" stroke-miterlimit="10" width="48.783" height="48.784"/>
<rect x="419.458" y="348.325" fill="#ED1F24" stroke="#FFFFFF" stroke-width="2" stroke-miterlimit="10" width="48.784" height="48.783"/>
<rect x="224.325" y="299.542" fill="#ED1F24" stroke="#FFFFFF" stroke-width="2" stroke-miterlimit="10" width="48.783" height="48.784"/>
<rect x="224.325" y="250.758" fill="#ED1F24" stroke="#FFFFFF" stroke-width="2" stroke-miterlimit="10" width="48.783" height="48.783"/>
<rect x="224.325" y="348.325" fill="#ED1F24" stroke="#FFFFFF" stroke-width="2" stroke-miterlimit="10" width="48.783" height="48.783"/>
<rect x="175.542" y="348.325" fill="#ED1F24" stroke="#FFFFFF" stroke-width="2" stroke-miterlimit="10" width="48.784" height="48.783"/>
<rect x="175.542" y="299.542" fill="#ED1F24" stroke="#FFFFFF" stroke-width="2" stroke-miterlimit="10" width="48.784" height="48.784"/>
<rect x="121.336" y="407.949" fill="none" width="146.352" height="48.785"/>
<text transform="matrix(1 0 0 1 175.5894 431.0439)" font-family="'MyriadPro-Regular'" font-size="32.5222">Folclor</text>
<rect x="273.108" y="397.108" fill="#ED1F24" stroke="#FFFFFF" stroke-width="2" stroke-miterlimit="10" width="48.783" height="48.783"/>
<rect x="327.309" y="407.949" fill="none" width="146.352" height="48.785"/>
<text transform="matrix(1 0 0 1 327.3086 431.0439)" font-family="'MyriadPro-Regular'" font-size="32.5222">pixeli</text>
<rect x="273.105" y="407.949" fill="none" width="48.785" height="48.785"/>
<text transform="matrix(1 0 0 1 284.6724 431.0439)" fill="#FFFFFF" font-family="'MyriadPro-Regular'" font-size="32.5222">in</text>
<rect x="126.758" y="348.325" fill="#ED1F24" stroke="#FFFFFF" stroke-width="2" stroke-miterlimit="10" width="48.783" height="48.783"/>
</svg>
